<svg width="512" height="512" xmlns="http://www.w3.org/2000/svg">
 <title/>

 <g>
  <title>background</title>
  <rect fill="none" id="canvas_background" height="402" width="582" y="-1" x="-1"/>
 </g>
 <g>
  <title>Layer 1</title>
  <polygon fill="#00ff7f" id="svg_1" points="300.994 143.441 376 111.296 431.072 134.899 467.077 120 374 81.485 162.923 168.828 256 207.342 350.549 168.219 300.994 143.441"/>
  <path fill="#00ff7f" id="svg_2" d="m353.07715,72.82764l-94.01856,-38.9043a7.95408,7.95408 0 0 0 -6.11718,0l-208.01856,86.07666l97.07715,40.16992l211.07715,-87.34228z"/>
  <path fill="#00ff7f" id="svg_3" d="m32,388.04492a7.9828,7.9828 0 0 0 4.90527,7.37793l211.09473,88.5459l0,-262.62134l-216,-89.37941l0,256.07692zm44.42188,-108.88965l-16,-8l7.15624,-14.31054l16,8l-7.15624,14.31054zm39.15624,-14.31054l-16,-8l7.15624,-14.31054l16,8l-7.15624,14.31054zm23.15624,-78.31054l16,8l-7.15624,14.31054l-16,-8l7.15624,-14.31054zm0,32l16,8l-7.15624,14.31054l-16,-8l7.15624,-14.31054zm-80,-48l13.26564,24.52147l0,-19.05566l16,0l0,19.05566l20.42188,-10.21093l7.15624,14.31054l-23.42651,11.71326l18.24878,24.33167l-12.80078,9.5996l-17.59961,-23.4663l-17.59961,23.4663l-12.80078,-9.5996l18.24878,-24.33167l-23.42651,-11.71326l14.31248,-28.62108z"/>
  <polygon fill="#00ff7f" id="svg_4" points="424 155.141 376 175.003 376 260.456 424 242.456 424 155.141"/>
  <polygon fill="#00ff7f" id="svg_5" points="376 128.704 339.006 144.559 370.125 160.118 410.407 143.45 376 128.704"/>
  <path fill="#00ff7f" id="svg_6" d="m440,148.51978l0,105.02422l-80,30l0,-101.92071l-96,39.72412l0,262.62134l211.09473,-88.54639a7.98162,7.98162 0 0 0 4.90527,-7.37744l0,-256.07692l-40,16.55178z"/>
 </g>
</svg>